<svg width="46" height="46" viewBox="0 0 46 46" fill="none" xmlns="http://www.w3.org/2000/svg">
<circle cx="23" cy="23" r="23" fill="#ECF0F4"/>
<path d="M23 26C24.6569 26 26 24.6569 26 23C26 21.3431 24.6569 20 23 20C21.3431 20 20 21.3431 20 23C20 24.6569 21.3431 26 23 26Z" stroke="#181C2E" stroke-width="1.5"/>
<path d="M24.765 13.152C24.398 13 23.932 13 23 13C22.068 13 21.602 13 21.235 13.152C20.9921 13.2525 20.7715 13.3999 20.5857 13.5857C20.3999 13.7716 20.2525 13.9922 20.152 14.235C20.06 14.458 20.023 14.719 20.009 15.098C20.0027 15.372 19.927 15.6399 19.7888 15.8766C19.6506 16.1132 19.4545 16.3109 19.219 16.451C18.9799 16.585 18.7106 16.6561 18.4365 16.6575C18.1624 16.6589 17.8924 16.5906 17.652 16.459C17.316 16.281 17.073 16.183 16.832 16.151C16.3063 16.0819 15.7747 16.2243 15.354 16.547C15.04 16.79 14.806 17.193 14.34 18C13.874 18.807 13.64 19.21 13.589 19.605C13.5546 19.8655 13.5719 20.1301 13.6398 20.3839C13.7078 20.6377 13.8251 20.8756 13.985 21.084C14.133 21.276 14.34 21.437 14.661 21.639C15.134 21.936 15.438 22.442 15.438 23C15.438 23.558 15.134 24.064 14.661 24.36C14.34 24.563 14.132 24.724 13.985 24.916C13.8251 25.1244 13.7078 25.3623 13.6398 25.6161C13.5719 25.8699 13.5546 26.1345 13.589 26.395C13.641 26.789 13.874 27.193 14.339 28C14.806 28.807 15.039 29.21 15.354 29.453C15.5624 29.6129 15.8003 29.7302 16.0541 29.7981C16.3078 29.8661 16.5725 29.8834 16.833 29.849C17.073 29.817 17.316 29.719 17.652 29.541C17.8924 29.4094 18.1624 29.3411 18.4365 29.3425C18.7106 29.3439 18.9799 29.415 19.219 29.549C19.702 29.829 19.989 30.344 20.009 30.902C20.023 31.282 20.059 31.542 20.152 31.765C20.2525 32.0078 20.3999 32.2284 20.5857 32.4143C20.7715 32.6001 20.9921 32.7475 21.235 32.848C21.602 33 22.068 33 23 33C23.932 33 24.398 33 24.765 32.848C25.0078 32.7475 25.2284 32.6001 25.4142 32.4143C25.6001 32.2284 25.7474 32.0078 25.848 31.765C25.94 31.542 25.977 31.282 25.991 30.902C26.011 30.344 26.298 29.828 26.781 29.549C27.0201 29.415 27.2893 29.3439 27.5634 29.3425C27.8375 29.3411 28.1075 29.4094 28.348 29.541C28.684 29.719 28.927 29.817 29.167 29.849C29.4274 29.8834 29.6921 29.8661 29.9459 29.7981C30.1996 29.7302 30.4375 29.6129 30.646 29.453C30.961 29.211 31.194 28.807 31.66 28C32.126 27.193 32.36 26.79 32.411 26.395C32.4453 26.1345 32.428 25.8699 32.3601 25.6161C32.2921 25.3623 32.1749 25.1244 32.015 24.916C31.867 24.724 31.66 24.563 31.339 24.361C31.1047 24.2186 30.9105 24.019 30.7746 23.7809C30.6386 23.5428 30.5655 23.2741 30.562 23C30.562 22.442 30.866 21.936 31.339 21.64C31.66 21.437 31.868 21.276 32.015 21.084C32.1749 20.8756 32.2921 20.6377 32.3601 20.3839C32.428 20.1301 32.4453 19.8655 32.411 19.605C32.359 19.211 32.126 18.807 31.661 18C31.194 17.193 30.961 16.79 30.646 16.547C30.4375 16.3871 30.1996 16.2698 29.9459 16.2019C29.6921 16.1339 29.4274 16.1166 29.167 16.151C28.927 16.183 28.684 16.281 28.347 16.459C28.1066 16.5904 27.8368 16.6586 27.5629 16.6572C27.289 16.6558 27.0199 16.5849 26.781 16.451C26.5454 16.3109 26.3493 16.1132 26.2112 15.8766C26.073 15.6399 25.9972 15.372 25.991 15.098C25.977 14.718 25.941 14.458 25.848 14.235C25.7474 13.9922 25.6001 13.7716 25.4142 13.5857C25.2284 13.3999 25.0078 13.2525 24.765 13.152Z" stroke="#181C2E" stroke-width="1.5"/>
</svg>
